PathFileType	4	(X/Y/Z)	E:\Qualisys_Data\Carbon_Farble_Plate\Data\Amateur_Runner\S2\T1\S2T1V21_c3d.trc
DataRate	CameraRate	NumFrames	NumMarkers	Units	OrigDataRate	OrigDataStartFrame	OrigNumFrames
200.000000	200.000000	4	39	mm	200.000000	78	315
Frame#	Time	LSHO			RSHO			LICST			RICST			LASIS			LHEEL			RASIS			LTROC			RTROC			SACR			LTH1			LSK4			LTH2			LTH3			RHM5			LSK2			LTH4			RTH1			LTOE			RTH2			RTH3			RTH4			LLEP			RLEP			LSK1			LSK3			RSK1			LHM5			RSK2			LFT1			RSK3			RSK4			LLME			RLME			RTOE			RHEEL			RFT1			RFT2			LFT2			
		X1	Y1	Z1	X2	Y2	Z2	X3	Y3	Z3	X4	Y4	Z4	X5	Y5	Z5	X6	Y6	Z6	X7	Y7	Z7	X8	Y8	Z8	X9	Y9	Z9	X10	Y10	Z10	X11	Y11	Z11	X12	Y12	Z12	X13	Y13	Z13	X14	Y14	Z14	X15	Y15	Z15	X16	Y16	Z16	X17	Y17	Z17	X18	Y18	Z18	X19	Y19	Z19	X20	Y20	Z20	X21	Y21	Z21	X22	Y22	Z22	X23	Y23	Z23	X24	Y24	Z24	X25	Y25	Z25	X26	Y26	Z26	X27	Y27	Z27	X28	Y28	Z28	X29	Y29	Z29	X30	Y30	Z30	X31	Y31	Z31	X32	Y32	Z32	X33	Y33	Z33	X34	Y34	Z34	X35	Y35	Z35	X36	Y36	Z36	X37	Y37	Z37	X38	Y38	Z38	X39	Y39	Z39	

79	0.39	-1730.614135742188	1523.491455078125	-470.8807373046875	-1644.353881835938	1500.294067382812	-191.6418914794922	-1718.607788085938	1046.567016601562	-459.3224182128906	-1687.712646484375	1040.8828125	-162.34765625	-1658.579956054688	999.810546875	-441.7166442871094	-1515.077026367188	123.4537811279297	-339.6277465820312	-1635.743530273438	989.1712646484376	-186.2876281738281	-1780.359008789062	921.16845703125	-458.597412109375	-1797.208618164062	959.5159301757812	-149.8469696044922	-1798.2841796875	1086.705810546875	-300.730712890625	-1590.043334960938	701.0340576171875	-481.4332885742188	-1564.379028320312	323.4706420898438	-436.3445739746094	-1669.734985351562	670.3956909179688	-476.9114379882812	-1553.8408203125	609.8140258789062	-448.6631469726562	-2342.43603515625	376.0220031738281	-182.1400146484375	-1586.0712890625	419.0123596191406	-451.0817565917969	-1634.135620117188	580.8936157226562	-443.1937255859375	-1763.695434570312	676.1708374023438	-148.6011352539062	-1300.473022460938	228.9057464599609	-386.9600524902344	-1834.924072265625	706.6466674804688	-147.3929901123047	-1800.588623046875	582.181396484375	-159.0809936523438	-1874.247680664062	617.6265869140625	-164.9732513427734	-1574.184204101562	557.8701171875	-440.4988098144531	-1870.256469726562	578.2330322265625	-157.0739898681641	-1510.472290039062	437.4933471679688	-443.8803405761719	-1487.86962890625	340.8489685058594	-432.4542541503906	-1971.051025390625	512.6871337890625	-157.4510803222656	-1340.014282226562	179.4798583984375	-443.7975769042969	-1987.354125976562	590.90576171875	-160.9533996582031	-1490.206420898438	109.8841552734375	-314.39501953125	-2070.75	490.3028564453125	-170.3827514648438	-2083.830322265625	567.536865234375	-181.6416778564453	-1473.022094726562	157.6009521484375	-403.7255554199219	-2258.237060546875	488.337890625	-215.9950561523438	-2324.515869140625	304.9072570800781	-226.1010131835938	-2246.6533203125	532.6409301757812	-282.4725646972656	-2267.30517578125	514.7975463867188	-317.9407653808594	-2278.388427734375	542.7265014648438	-266.9798889160156	-1502.351684570312	95.71165466308594	-366.9071655273438
80	0.395	-1710.00048828125	1519.890869140625	-472.2779846191406	-1624.109619140625	1497.7626953125	-192.3741149902344	-1698.326538085938	1043.914428710938	-458.9553527832031	-1668.608764648438	1038.164306640625	-161.8713684082031	-1638.380615234375	997.2454833984376	-441.3189697265625	-1497.217407226562	120.1613922119141	-337.2248840332031	-1614.501953125	987.0311889648438	-185.8865966796875	-1760.01708984375	918.4595336914062	-458.8885192871094	-1776.221313476562	955.6396484375	-149.5433502197266	-1778.27197265625	1083.688598632812	-300.5765075683594	-1570.573486328125	697.7814331054688	-480.5873413085938	-1545.731201171875	320.522705078125	-435.6726684570312	-1649.80615234375	666.171142578125	-476.198974609375	-1533.530639648438	607.30078125	-446.4645080566406	-2322.834228515625	386.8641967773438	-183.4682312011719	-1566.862426757812	416.10888671875	-450.9838256835938	-1612.883422851562	577.6021118164062	-440.6467895507812	-1738.1982421875	672.1519775390625	-147.5062713623047	-1283.083251953125	226.2945098876953	-386.4635620117188	-1810.166748046875	702.0516357421875	-146.9626617431641	-1774.94970703125	578.20263671875	-158.34765625	-1848.566650390625	611.991943359375	-164.0486297607422	-1554.310302734375	555.0608520507812	-439.8782653808594	-1844.852416992188	572.9930419921875	-156.5504455566406	-1491.260498046875	434.07470703125	-442.8138732910156	-1469.111328125	337.4423522949219	-430.6798400878906	-1947.06494140625	510.2996215820312	-157.248779296875	-1322.432250976562	175.6421966552734	-442.6266174316406	-1960.435913085938	589.4887084960938	-161.4059448242188	-1471.12890625	106.7545318603516	-311.8071594238281	-2045.753540039062	491.7892761230469	-170.6081237792969	-2056.61328125	569.2788696289062	-181.1048583984375	-1454.951293945312	153.8550567626953	-401.6254577636719	-2233.427001953125	496.3863830566406	-217.1994171142578	-2303.910888671875	315.6685791015625	-225.2630004882812	-2219.823486328125	539.9575805664062	-282.9566955566406	-2241.544189453125	522.6552124023438	-319.3605651855469	-2250.759521484375	551.2510375976562	-268.6348876953125	-1484.371826171875	92.10082244873048	-364.365478515625
81	0.4	-1689.475952148438	1515.895629882812	-473.47021484375	-1604.093994140625	1494.507568359375	-193.1063385009766	-1678.7783203125	1040.654418945312	-458.6932373046875	-1648.3349609375	1034.641845703125	-161.5412445068359	-1617.910034179688	994.4990234375	-441.1080017089844	-1480.150146484375	116.526481628418	-335.3294067382812	-1593.9228515625	984.0969848632812	-185.5210723876953	-1738.631591796875	915.1315307617188	-459.1654357910156	-1754.007934570312	950.6064453125	-148.5967254638672	-1758.110107421875	1080.356201171875	-300.31591796875	-1550.166137695312	694.8471069335938	-478.9190673828125	-1527.948486328125	317.1006164550781	-434.6585998535156	-1628.92333984375	663.07421875	-474.3082580566406	-1512.528076171875	605.6463623046875	-444.4449157714844	-2299.763427734375	397.2877197265625	-183.9127807617188	-1547.732299804688	413.15576171875	-450.1763000488281	-1591.526733398438	575.085205078125	-438.2864074707031	-1713.269897460938	667.6068725585938	-146.3078002929688	-1266.815551757812	221.9954376220703	-386.8194274902344	-1786.161376953125	696.65576171875	-146.2982940673828	-1749.401611328125	573.8008422851562	-156.8791351318359	-1823.204467773438	606.2734375	-163.2183227539062	-1534.042114257812	552.3339233398438	-438.5291442871094	-1818.81884765625	567.65234375	-155.0983276367188	-1472.078979492188	430.263916015625	-441.5605773925781	-1450.674438476562	333.5904846191406	-429.1492614746094	-1921.361938476562	507.9615783691406	-156.5340576171875	-1305.46142578125	170.8249969482422	-441.3262023925781	-1932.665649414062	587.5505981445312	-161.2201843261719	-1454.358154296875	104.0122528076172	-309.7406921386719	-2022.053588867188	492.533203125	-171.6270294189453	-2029.072265625	570.1453247070312	-180.8329925537109	-1438.202514648438	149.5406951904297	-400.0083923339844	-2206.789794921875	504.2444763183594	-218.1686859130859	-2284.1591796875	325.4267272949219	-225.3699493408203	-2192.197509765625	546.3200073242188	-284.287841796875	-2215.266357421875	530.2095336914062	-320.604736328125	-2223.18212890625	559.0360717773438	-269.2320556640625	-1467.98095703125	88.45838928222656	-362.2608947753906
82	0.405	-1668.575561523438	1511.818481445312	-475.0324401855469	-1583.923461914062	1491.5029296875	-193.7305603027344	-1658.659423828125	1037.347290039062	-458.5605163574219	-1627.538818359375	1030.923706054688	-161.2117462158203	-1598.521362304688	991.5667724609376	-441.2261962890625	-1463.393432617188	112.4535217285156	-333.8295288085938	-1573.320068359375	980.82763671875	-185.4765472412109	-1718.411376953125	911.581298828125	-460.0321960449219	-1733.316162109375	945.8875732421876	-148.4732818603516	-1737.001220703125	1076.35107421875	-298.842529296875	-1529.093383789062	692.821533203125	-477.5352172851562	-1510.22802734375	313.3870239257812	-433.1126708984375	-1607.218994140625	661.0230712890625	-471.5387573242188	-1491.054443359375	603.8532104492188	-442.7083129882812	-2275.718505859375	407.6744384765625	-183.4902496337891	-1530.101928710938	409.9139709472656	-449.189697265625	-1570.230590820312	573.8311157226562	-436.169677734375	-1687.159790039062	663.7877197265625	-145.0672607421875	-1250.5673828125	217.5545196533203	-385.1896667480469	-1761.675048828125	691.2825927734375	-145.7812652587891	-1723.8701171875	568.3739624023438	-155.3312377929688	-1797.61572265625	600.3568115234375	-162.3962249755859	-1513.379028320312	549.0213623046875	-437.3412170410156	-1792.51025390625	561.8143920898438	-153.3703765869141	-1453.751098632812	426.2238464355469	-440.4761047363281	-1432.918823242188	329.0033874511719	-427.3375854492188	-1895.118041992188	505.2847595214844	-155.7633666992188	-1289.237182617188	165.6753845214844	-439.8609008789062	-1904.32275390625	585.078125	-160.5597534179688	-1438.471069335938	100.4498672485352	-307.6938781738281	-1996.846313476562	493.3511352539062	-170.7707672119141	-2000.961791992188	570.6575927734375	-180.1929016113281	-1422.167602539062	145.2439270019531	-398.72314453125	-2181.9384765625	511.4600219726562	-219.308349609375	-2262.93798828125	334.0228576660156	-225.5079345703125	-2164.897216796875	552.9345092773438	-285.1746520996094	-2188.533447265625	537.6726684570312	-321.7392272949219	-2195.785400390625	566.54052734375	-270.5897521972656	-1451.998046875	84.0466537475586	-360.3172607421875
